<svg width="25" height="12" viewBox="0 0 25 12" fill="none" xmlns="http://www.w3.org/2000/svg">
<path d="M24.7617 5.42665L19.5539 0.237454C19.2362 -0.0791514 18.7209 -0.0791514 18.4032 0.237454C18.0854 0.554125 18.0854 1.06747 18.4032 1.38414L22.2218 5.18918H0.813704C0.364344 5.18918 0 5.55223 0 5.99999C0 6.44769 0.364344 6.8108 0.813704 6.8108H22.2218L18.4033 10.6158C18.0855 10.9325 18.0855 11.4459 18.4033 11.7625C18.5621 11.9207 18.7704 12 18.9787 12C19.1869 12 19.3952 11.9207 19.5541 11.7625L24.7617 6.57333C25.0795 6.25666 25.0795 5.74332 24.7617 5.42665Z" fill="white"/>
</svg>
