<svg width="18" height="18" viewBox="0 0 18 18" fill="none" xmlns="http://www.w3.org/2000/svg">
<path d="M14.9469 1.40625V1.50625H15.0469H15.8906C16.9985 1.50625 17.9 2.40774 17.9 3.51562V15.8906C17.9 16.9985 16.9985 17.9 15.8906 17.9H2.10938C1.00149 17.9 0.1 16.9985 0.1 15.8906V3.51562C0.1 2.40774 1.00149 1.50625 2.10938 1.50625H2.95312H3.05312V1.40625V0.1H4.25938V1.40625V1.50625H4.35938H13.6406H13.7406V1.40625V0.1H14.9469V1.40625ZM1.40625 6.50938H1.30625V6.60938V15.8906C1.30625 16.3336 1.66644 16.6938 2.10938 16.6938H15.8906C16.3336 16.6938 16.6938 16.3336 16.6938 15.8906V6.60938V6.50938H16.5938H1.40625ZM16.5938 5.30312H16.6938V5.20312V3.51562C16.6938 3.07269 16.3336 2.7125 15.8906 2.7125H15.0469H14.9469V2.8125V4.11875H13.7406V2.8125V2.7125H13.6406H4.35938H4.25938V2.8125V4.11875H3.05312V2.8125V2.7125H2.95312H2.10938C1.66644 2.7125 1.30625 3.07269 1.30625 3.51562V5.20312V5.30312H1.40625H16.5938Z" fill="white" stroke="#48311E" stroke-width="0.2"/>
<path d="M2.77188 9.39219V8.18594H3.97812V9.39219H2.77188Z" fill="white" stroke="#181511" stroke-width="0.2"/>
<path d="M5.58438 9.39219V8.18594H6.79062V9.39219H5.58438Z" fill="white" stroke="#181511" stroke-width="0.2"/>
<path d="M8.39688 9.39219V8.18594H9.60312V9.39219H8.39688Z" fill="white" stroke="#181511" stroke-width="0.2"/>
<path d="M11.2094 9.39219V8.18594H12.4156V9.39219H11.2094Z" fill="white" stroke="#181511" stroke-width="0.2"/>
<path d="M14.0219 9.39219V8.18594H15.2281V9.39219H14.0219Z" fill="white" stroke="#181511" stroke-width="0.2"/>
<path d="M2.77188 12.2047V10.9984H3.97812V12.2047H2.77188Z" fill="white" stroke="#181511" stroke-width="0.2"/>
<path d="M5.58438 12.2047V10.9984H6.79062V12.2047H5.58438Z" fill="white" stroke="#181511" stroke-width="0.2"/>
<path d="M8.39688 12.2047V10.9984H9.60312V12.2047H8.39688Z" fill="white" stroke="#181511" stroke-width="0.2"/>
<path d="M11.2094 12.2047V10.9984H12.4156V12.2047H11.2094Z" fill="white" stroke="#181511" stroke-width="0.2"/>
<path d="M2.77188 15.0172V13.8109H3.97812V15.0172H2.77188Z" fill="white" stroke="#181511" stroke-width="0.2"/>
<path d="M5.58438 15.0172V13.8109H6.79062V15.0172H5.58438Z" fill="white" stroke="#181511" stroke-width="0.2"/>
<path d="M8.39688 15.0172V13.8109H9.60312V15.0172H8.39688Z" fill="white" stroke="#181511" stroke-width="0.2"/>
<path d="M11.2094 15.0172V13.8109H12.4156V15.0172H11.2094Z" fill="white" stroke="#181511" stroke-width="0.2"/>
<path d="M14.0219 12.2047V10.9984H15.2281V12.2047H14.0219Z" fill="white" stroke="#181511" stroke-width="0.2"/>
</svg>
