<svg width="18" height="18" viewBox="0 0 18 18" fill="none" xmlns="http://www.w3.org/2000/svg">
<g clip-path="url(#clip0)">
<path d="M6.55854 9.93062C6.55854 9.70513 6.37565 9.52246 6.14998 9.52246H4.72426C4.49885 9.52246 4.31592 9.70513 4.31592 9.93062V11.3562C4.31592 11.5819 4.49885 11.7647 4.72426 11.7647H6.14998C6.37565 11.7647 6.55854 11.5819 6.55854 11.3562V9.93062Z" fill="white"/>
<path d="M10.1213 9.93062C10.1213 9.70513 9.93837 9.52246 9.71314 9.52246H8.28724C8.06184 9.52246 7.87891 9.70513 7.87891 9.93062V11.3562C7.87891 11.5819 8.06184 11.7647 8.28724 11.7647H9.71314C9.93837 11.7647 10.1213 11.5819 10.1213 11.3562V9.93062Z" fill="white"/>
<path d="M13.6845 9.93062C13.6845 9.70513 13.5016 9.52246 13.2762 9.52246H11.8505C11.6248 9.52246 11.4419 9.70513 11.4419 9.93062V11.3562C11.4419 11.5819 11.6248 11.7647 11.8505 11.7647H13.2762C13.5016 11.7647 13.6845 11.5819 13.6845 11.3562V9.93062Z" fill="white"/>
<path d="M6.55854 13.4939C6.55854 13.2681 6.37565 13.0856 6.14998 13.0856H4.72426C4.49885 13.0856 4.31592 13.2681 4.31592 13.4939V14.9192C4.31592 15.1449 4.49885 15.3276 4.72426 15.3276H6.14998C6.37565 15.3276 6.55854 15.1448 6.55854 14.9192V13.4939Z" fill="white"/>
<path d="M10.1213 13.4939C10.1213 13.2681 9.93837 13.0856 9.71314 13.0856H8.28724C8.06184 13.0856 7.87891 13.2681 7.87891 13.4939V14.9192C7.87891 15.1449 8.06184 15.3276 8.28724 15.3276H9.71314C9.93837 15.3276 10.1213 15.1448 10.1213 14.9192V13.4939Z" fill="white"/>
<path d="M13.6845 13.4939C13.6845 13.2681 13.5016 13.0856 13.2764 13.0856H11.8505C11.6248 13.0856 11.4419 13.2681 11.4419 13.4939V14.9192C11.4419 15.1449 11.6248 15.3276 11.8505 15.3276H13.2764C13.5016 15.3276 13.6845 15.1448 13.6845 14.9192V13.4939Z" fill="white"/>
<path d="M16.234 2.00428V4.18167C16.234 5.16583 15.4356 5.95891 14.4516 5.95891H13.3272C12.3431 5.95891 11.5341 5.16583 11.5341 4.18167V1.99646H6.46622V4.18167C6.46622 5.16583 5.65728 5.95891 4.67334 5.95891H3.54873C2.56475 5.95891 1.7664 5.16583 1.7664 4.18167V2.00428C0.906393 2.0302 0.199707 2.74183 0.199707 3.61651V16.3771C0.199707 17.2682 0.92199 18.0001 1.81312 18.0001H16.1872C17.077 18.0001 17.8007 17.2667 17.8007 16.3771V3.61651C17.8007 2.74183 17.094 2.0302 16.234 2.00428ZM15.7118 15.5825C15.7118 15.9676 15.3995 16.28 15.0143 16.28H2.95539C2.57014 16.28 2.25789 15.9676 2.25789 15.5825V8.99115C2.25789 8.6059 2.5701 8.29347 2.95539 8.29347H15.0142C15.3995 8.29347 15.7117 8.6059 15.7117 8.99115L15.7118 15.5825Z" fill="white"/>
<path d="M3.54489 4.79156H4.65707C4.99465 4.79156 5.26837 4.51825 5.26837 4.18067V0.611109C5.26837 0.273493 4.99465 0 4.65707 0H3.54489C3.20727 0 2.93359 0.273493 2.93359 0.611109V4.18067C2.93359 4.51825 3.20727 4.79156 3.54489 4.79156Z" fill="white"/>
<path d="M13.3129 4.79156H14.4251C14.7625 4.79156 15.0362 4.51825 15.0362 4.18067V0.611109C15.0362 0.273493 14.7625 0 14.4251 0H13.3129C12.9754 0 12.7017 0.273493 12.7017 0.611109V4.18067C12.7017 4.51825 12.9754 4.79156 13.3129 4.79156Z" fill="white"/>
</g>
<defs>
<clipPath id="clip0">
<rect width="18" height="18" fill="white"/>
</clipPath>
</defs>
</svg>
