<svg width="18" height="18" viewBox="0 0 18 18" fill="none" xmlns="http://www.w3.org/2000/svg">
<g clip-path="url(#clip0)">
<path d="M10.1261 5.86023H8.2373V8.08869H10.1261C10.7535 8.08869 11.264 7.58884 11.264 6.97448C11.264 6.36011 10.7535 5.86023 10.1261 5.86023V5.86023Z" fill="white"/>
<path d="M15.363 2.58309C11.8466 -0.859957 6.15483 -0.860474 2.63799 2.58309C-0.878397 6.0261 -0.87896 11.5993 2.63799 15.0428C6.15434 18.4859 11.8461 18.4864 15.363 15.0428C18.8793 11.5998 18.8799 6.02662 15.363 2.58309V2.58309ZM10.1267 9.53662H8.2379V10.2947H9.75125C10.1594 10.2947 10.4903 10.6187 10.4903 11.0184C10.4903 11.4181 10.1594 11.7421 9.75125 11.7421H8.2379V12.4887C8.2379 12.8884 7.90701 13.2124 7.49883 13.2124C7.09064 13.2124 6.75975 12.8884 6.75975 12.4887V11.7421H5.99723C5.58905 11.7421 5.25816 11.4181 5.25816 11.0184C5.25816 10.6187 5.58905 10.2947 5.99723 10.2947H6.75975V9.53662H5.99723C5.58905 9.53662 5.25816 9.21262 5.25816 8.81295C5.25816 8.41328 5.58905 8.08928 5.99723 8.08928H6.75975V5.13716C6.75975 4.73749 7.09064 4.41349 7.49883 4.41349H10.1267C11.5692 4.41349 12.7428 5.56261 12.7428 6.97504C12.7428 8.38754 11.5692 9.53662 10.1267 9.53662V9.53662Z" fill="white"/>
</g>
<defs>
<clipPath id="clip0">
<rect width="18" height="17.6248" fill="white"/>
</clipPath>
</defs>
</svg>
