<svg width="26" height="26" viewBox="0 0 26 26" fill="none" xmlns="http://www.w3.org/2000/svg">
<path d="M24.9866 5.42181C24.0481 4.30616 22.3153 3.85107 19.0061 3.85107H6.99366C3.60872 3.85107 1.84659 4.33551 0.911594 5.52329C0 6.68138 0 8.38774 0 10.7494V15.2506C0 19.8259 1.0816 22.1489 6.99366 22.1489H19.0062C21.8759 22.1489 23.4661 21.7473 24.4949 20.7627C25.5499 19.7531 26 18.1046 26 15.2506V10.7494C26 8.25883 25.9295 6.54241 24.9866 5.42181ZM16.6921 13.6215L11.2373 16.4723C11.1153 16.5361 10.982 16.5677 10.8488 16.5677C10.698 16.5677 10.5475 16.5271 10.4143 16.4464C10.1633 16.2943 10.0101 16.0223 10.0101 15.729V10.0455C10.0101 9.75265 10.1629 9.48091 10.4133 9.32877C10.6639 9.17663 10.9754 9.16623 11.2354 9.30126L16.6902 12.1338C16.9677 12.2778 17.142 12.5643 17.1424 12.8769C17.1427 13.1898 16.9692 13.4767 16.6921 13.6215Z" fill="white"/>
</svg>
