<svg width="14" height="14" viewBox="0 0 14 14" fill="none" xmlns="http://www.w3.org/2000/svg">
<g clip-path="url(#clip0)">
<path d="M13.6958 6.37199C13.9714 6.10343 14.0687 5.70928 13.9498 5.34288C13.8307 4.97648 13.5204 4.71492 13.1391 4.65942L9.74927 4.16686C9.6049 4.14584 9.48015 4.05529 9.41567 3.92437L7.90017 0.853008C7.73001 0.507914 7.38464 0.293457 6.99973 0.293457C6.61511 0.293457 6.26974 0.507914 6.09957 0.853008L4.58379 3.92465C4.51932 4.05557 4.39429 4.14612 4.24991 4.16715L0.860086 4.6597C0.479109 4.71492 0.168496 4.97676 0.0493534 5.34316C-0.0695092 5.70956 0.0277675 6.10371 0.303338 6.37227L2.756 8.76298C2.86057 8.86502 2.9085 9.01192 2.88383 9.15545L2.30522 12.5313C2.25392 12.8284 2.33185 13.1174 2.52416 13.3454C2.823 13.7005 3.34471 13.8088 3.76185 13.5895L6.79341 11.9955C6.92012 11.9291 7.07963 11.9297 7.20606 11.9955L10.2379 13.5895C10.3854 13.6672 10.5426 13.7064 10.7049 13.7064C11.0013 13.7064 11.2822 13.5747 11.4753 13.3454C11.6679 13.1174 11.7455 12.8279 11.6942 12.5313L11.1154 9.15545C11.0907 9.01164 11.1386 8.86502 11.2432 8.76298L13.6958 6.37199Z" fill="#EDCB18"/>
</g>
<defs>
<clipPath id="clip0">
<rect width="14" height="14" fill="white"/>
</clipPath>
</defs>
</svg>
