<svg width="18" height="18" viewBox="0 0 18 18" fill="none" xmlns="http://www.w3.org/2000/svg">
<path d="M9.00038 8.80318C11.0017 8.80318 12.6242 6.83254 12.6242 4.40162C12.6242 1.97064 12.0915 0 9.00038 0C5.90927 0 5.37646 1.97064 5.37646 4.40162C5.37646 6.83254 6.99899 8.80318 9.00038 8.80318Z" fill="#FDFDFD"/>
<path d="M2.1555 15.5239C2.15488 15.3757 2.15426 15.4822 2.1555 15.5239V15.5239Z" fill="#FDFDFD"/>
<path d="M15.8447 15.6397C15.8467 15.5991 15.8454 15.3581 15.8447 15.6397V15.6397Z" fill="#FDFDFD"/>
<path d="M15.8367 15.3461C15.7695 11.1114 15.2165 9.90469 10.9843 9.14087C10.9843 9.14087 10.3885 9.90001 8.99995 9.90001C7.61138 9.90001 7.01553 9.14087 7.01553 9.14087C2.8295 9.89636 2.2428 11.0851 2.16566 15.2085C2.15934 15.5452 2.1564 15.5629 2.15527 15.5238C2.15553 15.5971 2.15584 15.7325 2.15584 15.9687C2.15584 15.9687 3.16343 18 8.99995 18C14.8364 18 15.8441 15.9687 15.8441 15.9687C15.8441 15.817 15.8442 15.7114 15.8443 15.6397C15.8432 15.6638 15.8409 15.617 15.8367 15.3461Z" fill="#FDFDFD"/>
</svg>
