<svg width="32" height="31" viewBox="0 0 32 31" fill="none" xmlns="http://www.w3.org/2000/svg">
<path d="M17.088 17.5144C16.7221 17.8691 16.1286 17.8691 15.7624 17.5144L11.5021 13.3872C11.3263 13.217 11.2274 12.9859 11.2274 12.7451C11.2274 12.5041 11.3263 12.2733 11.5021 12.1028L12.2594 11.3693L10.0351 9.21448L8.2128 10.9798C7.59952 11.5739 7.59976 12.5405 8.2128 13.1347L16.0231 20.7014C16.3183 20.9873 16.7133 21.1446 17.1354 21.1446C17.5575 21.1446 17.9525 20.9871 18.2477 20.7011L20.07 18.936L17.8456 16.7809L17.088 17.5144Z" fill="white"/>
<path d="M30.6553 10.9415C30.6553 8.02979 29.4775 5.28532 27.3384 3.21324C25.1995 1.14117 22.3665 0 19.3611 0H12.6689C12.6689 0 12.6689 0 12.6687 0C9.66357 0 6.83057 1.14117 4.69189 3.21301C2.55298 5.28508 1.375 8.02979 1.375 10.9412V16.0371C1.375 18.2918 2.08496 20.4608 3.42822 22.3096C4.61328 23.9406 6.20703 25.2145 8.06519 26.0224V28.9494C8.06519 30.4629 8.93994 30.9998 9.68896 31C10.2241 31 10.7595 30.7441 11.2805 30.2396L14.6465 26.9784H19.3613C22.3667 26.9784 25.1997 25.8372 27.3386 23.7651C29.4775 21.693 30.6555 18.9486 30.6555 16.0371L30.6553 10.9415ZM22.0586 19.5782L19.5732 21.9856C18.9238 22.6147 18.0581 22.9607 17.1353 22.9607C16.2124 22.9607 15.3467 22.6145 14.6973 21.9856L6.88672 14.4189C5.54272 13.1164 5.54272 10.9975 6.88672 9.6953L9.37207 7.28786C9.54785 7.11733 9.78613 7.02178 10.0349 7.02178C10.2834 7.02178 10.522 7.11733 10.6978 7.28786L14.248 10.7272C14.4238 10.8975 14.5225 11.1286 14.5225 11.3693C14.5225 11.6101 14.4238 11.8412 14.2478 12.0115L13.4907 12.7449L16.4253 15.5877L17.1826 14.8541C17.5488 14.4996 18.1423 14.4996 18.5083 14.8543L22.0586 18.2937C22.2346 18.464 22.3333 18.695 22.3333 18.9358C22.3333 19.1768 22.2346 19.4079 22.0586 19.5782ZM15.3052 8.8169C15.3052 8.3155 15.7249 7.9087 16.2427 7.9087C19.491 7.9087 22.1338 10.4687 22.1338 13.6152C22.1338 14.1169 21.7141 14.5234 21.1963 14.5234C20.6787 14.5234 20.2588 14.1169 20.2588 13.6152C20.2588 11.4703 18.4573 9.72511 16.2427 9.72511C15.7249 9.72511 15.3052 9.31854 15.3052 8.8169ZM25.2126 14.5239C24.6948 14.5239 24.2751 14.1171 24.2751 13.6157C24.2754 11.537 23.4397 9.58296 21.9226 8.11304C20.4053 6.64336 18.3882 5.83379 16.2424 5.83379C15.7249 5.83379 15.3049 5.42722 15.3049 4.92558C15.3049 4.42418 15.7249 4.01738 16.2424 4.01738C18.8889 4.01738 21.377 5.01593 23.2483 6.82879C25.1199 8.64165 26.1504 11.0519 26.1501 13.6157C26.1501 14.1171 25.7305 14.5239 25.2126 14.5239Z" fill="white"/>
</svg>
