<svg width="28" height="28" viewBox="0 0 28 28" fill="none" xmlns="http://www.w3.org/2000/svg">
<path d="M14 0C6.31042 0 0 6.31042 0 14C0 16.5378 0.684235 19.0084 1.98178 21.1698L0 28L6.83017 26.0182C8.99161 27.3158 11.4622 28 14 28C21.6896 28 28 21.6896 28 14C28 6.31042 21.6896 0 14 0ZM22.753 19.9154L22.1017 20.5668C21.1801 21.4883 19.0607 21.4153 17.6989 21.1523C13.1707 20.2777 7.89145 15.1606 6.87332 10.7292C6.36917 8.53403 6.64752 6.62552 7.37555 5.89728L8.02689 5.24594C8.38641 4.88663 8.97046 4.88705 9.32956 5.24594L11.9353 7.85193C12.1092 8.02582 12.2045 8.25632 12.2045 8.50305C12.2045 8.74979 12.1092 8.9805 11.9353 9.15375L11.2842 9.80573C10.5664 10.5252 10.5664 11.6939 11.2842 12.4117L15.5872 16.6581C16.3071 17.378 17.4722 17.3789 18.1932 16.6581L18.8445 16.007C19.1808 15.6688 19.8088 15.6678 20.1479 16.007L22.753 18.6121C23.1068 18.9644 23.1202 19.548 22.753 19.9154Z" fill="white"/>
</svg>
