<svg width="28" height="28" viewBox="0 0 28 28" fill="none" xmlns="http://www.w3.org/2000/svg">
<path d="M12.2563 11.3771L16.8104 14L12.2563 16.6229V11.3771Z" fill="white"/>
<path d="M14 28C6.2692 28 0 21.7308 0 14C0 6.2692 6.2692 0 14 0C21.7308 0 28 6.2692 28 14C28 21.7308 21.7308 28 14 28ZM22.7479 13.9857C22.7479 13.9857 22.7479 11.1464 22.3877 9.77731C22.1858 9.02792 21.5949 8.43704 20.8456 8.23538C19.4764 7.875 14 7.875 14 7.875C14 7.875 8.53787 7.875 7.15445 8.24969C6.40506 8.45135 5.81418 9.04245 5.6123 9.79184C5.25192 11.1464 5.25192 14 5.25192 14C5.25192 14 5.25192 16.8391 5.6123 18.2082C5.81396 18.9576 6.41937 19.563 7.15445 19.7646C8.52356 20.125 14 20.125 14 20.125C14 20.125 19.4764 20.125 20.8456 19.7503C21.5949 19.5486 22.1858 18.9576 22.3877 18.2082C22.7624 16.8391 22.7479 13.9857 22.7479 13.9857Z" fill="white"/>
</svg>
